<svg viewBox="0 0 880 500" xmlns="http://www.w3.org/2000/svg" font-family="system-ui, 'Segoe UI', Helvetica, Arial, sans-serif">
<rect width="880" height="500" fill="#ffffff"/>
<text x="24" y="34" font-size="16" font-weight="600" fill="#111827">Una tesela, del navegador al bucket</text>
<text x="24" y="52" font-size="11" fill="#6b7280">Redis responde primero; el almacén es el respaldo</text>
<rect x="40" y="76" width="130" height="44" rx="8" fill="#ffffff" stroke="#1f2937" stroke-width="1.5"/>
<text x="105.0" y="102.5" font-size="13" font-weight="600" fill="#111827" text-anchor="middle">navegador</text>
<circle cx="44" cy="80" r="13" fill="#ffffff" stroke="#d1d5db"/>
<g transform="translate(36.0 72.0) scale(0.6667)" fill="none" stroke="#374151" stroke-width="1.8" stroke-linejoin="round"><rect x="2.5" y="4" width="19" height="16" rx="2"/><path d="M2.5 8.5h19M5.5 6.3h.01M8 6.3h.01M10.5 6.3h.01"/></g>
<rect x="260" y="76" width="150" height="44" rx="8" fill="#eef2ff" stroke="#4338ca" stroke-width="2"/>
<text x="335.0" y="102.5" font-size="13" font-weight="600" fill="#3730a3" text-anchor="middle">data-service · web</text>
<circle cx="264" cy="80" r="13" fill="#ffffff" stroke="#d1d5db"/>
<g transform="translate(256.0 72.0) scale(0.1250)"><path fill="#3776AB"  d="M49.33 62h29.159C86.606 62 93 55.132 93 46.981V19.183c0-7.912-6.632-13.856-14.555-15.176-5.014-.835-10.195-1.215-15.187-1.191-4.99.023-9.612.448-13.805 1.191C37.098 6.188 35 10.758 35 19.183V30h29v4H23.776c-8.484 0-15.914 5.108-18.237 14.811-2.681 11.12-2.8 17.919 0 29.53C7.614 86.983 12.569 93 21.054 93H31V79.952C31 70.315 39.428 62 49.33 62zm-1.838-39.11c-3.026 0-5.478-2.479-5.478-5.545 0-3.079 2.451-5.581 5.478-5.581 3.015 0 5.479 2.502 5.479 5.581-.001 3.066-2.465 5.545-5.479 5.545zm74.789 25.921C120.183 40.363 116.178 34 107.682 34H97v12.981C97 57.031 88.206 65 78.489 65H49.33C41.342 65 35 72.326 35 80.326v27.8c0 7.91 6.745 12.564 14.462 14.834 9.242 2.717 17.994 3.208 29.051 0C85.862 120.831 93 116.549 93 108.126V97H64v-4h43.682c8.484 0 11.647-5.776 14.599-14.66 3.047-9.145 2.916-17.799 0-29.529zm-41.955 55.606c3.027 0 5.479 2.479 5.479 5.547 0 3.076-2.451 5.579-5.479 5.579-3.015 0-5.478-2.502-5.478-5.579 0-3.068 2.463-5.547 5.478-5.547z"/></g>
<rect x="500" y="76" width="130" height="44" rx="8" fill="#ffffff" stroke="#1f2937" stroke-width="1.5"/>
<text x="565.0" y="102.5" font-size="13" font-weight="600" fill="#111827" text-anchor="middle">Redis</text>
<circle cx="504" cy="80" r="13" fill="#ffffff" stroke="#d1d5db"/>
<g transform="translate(496.0 72.0) scale(0.6667)"><path fill="#FF4438" d="M22.71 13.145c-1.66 2.092-3.452 4.483-7.038 4.483-3.203 0-4.397-2.825-4.48-5.12.701 1.484 2.073 2.685 4.214 2.63 4.117-.133 6.94-3.852 6.94-7.239 0-4.05-3.022-6.972-8.268-6.972-3.752 0-8.4 1.428-11.455 3.685C2.59 6.937 3.885 9.958 4.35 9.626c2.648-1.904 4.748-3.13 6.784-3.744C8.12 9.244.886 17.05 0 18.425c.1 1.261 1.66 4.648 2.424 4.648.232 0 .431-.133.664-.365a100.49 100.49 0 0 0 5.54-6.765c.222 3.104 1.748 6.898 6.014 6.898 3.819 0 7.604-2.756 9.33-8.965.2-.764-.73-1.361-1.261-.73zm-4.349-5.013c0 1.959-1.926 2.922-3.685 2.922-.941 0-1.664-.247-2.235-.568 1.051-1.592 2.092-3.225 3.21-4.973 1.972.334 2.71 1.43 2.71 2.619z"/></g>
<rect x="720" y="76" width="130" height="44" rx="8" fill="#ffffff" stroke="#1f2937" stroke-width="1.5"/>
<text x="785.0" y="102.5" font-size="13" font-weight="600" fill="#111827" text-anchor="middle">tiles-data</text>
<circle cx="724" cy="80" r="13" fill="#ffffff" stroke="#d1d5db"/>
<g transform="translate(716.0 72.0) scale(0.6667)" fill="none" stroke="#374151" stroke-width="1.8" stroke-linecap="round"><ellipse cx="12" cy="5" rx="8" ry="3"/><path d="M4 5v14c0 1.66 3.58 3 8 3s8-1.34 8-3V5"/><path d="M4 12c0 1.66 3.58 3 8 3s8-1.34 8-3"/></g>
<line x1="105" y1="120" x2="105" y2="424" stroke="#d1d5db" stroke-dasharray="2 4"/>
<line x1="335" y1="120" x2="335" y2="424" stroke="#d1d5db" stroke-dasharray="2 4"/>
<line x1="565" y1="120" x2="565" y2="424" stroke="#d1d5db" stroke-dasharray="2 4"/>
<line x1="785" y1="120" x2="785" y2="424" stroke="#d1d5db" stroke-dasharray="2 4"/>
<line x1="111.0" y1="156.0" x2="320.0" y2="156.0" stroke="#1f2937" stroke-width="1.5"/>
<polygon points="329.0,156.0 320.0,159.6 320.0,152.4" fill="#1f2937"/>
<polygon points="139,129 152,142 139,155 126,142" fill="#fff7ed" stroke="#d97706" stroke-width="1.5"/>
<text x="139" y="146.5" font-size="13" font-weight="600" fill="#111827" text-anchor="middle">1</text>
<text x="157" y="146" font-size="11" fill="#374151" text-anchor="start">GET /products/…/{z}/{x}/{y}.webp</text>
<line x1="341.0" y1="196.0" x2="550.0" y2="196.0" stroke="#1f2937" stroke-width="1.5"/>
<polygon points="559.0,196.0 550.0,199.6 550.0,192.4" fill="#1f2937"/>
<polygon points="369,169 382,182 369,195 356,182" fill="#fff7ed" stroke="#d97706" stroke-width="1.5"/>
<text x="369" y="186.5" font-size="13" font-weight="600" fill="#111827" text-anchor="middle">2</text>
<text x="387" y="186" font-size="11" fill="#374151" text-anchor="start">busca la clave de la tesela</text>
<line x1="559.0" y1="236.0" x2="350.0" y2="236.0" stroke="#1f2937" stroke-width="1.5" stroke-dasharray="5 4"/>
<polygon points="341.0,236.0 350.0,232.4 350.0,239.6" fill="#1f2937"/>
<polygon points="369,209 382,222 369,235 356,222" fill="#fff7ed" stroke="#d97706" stroke-width="1.5"/>
<text x="369" y="226.5" font-size="13" font-weight="600" fill="#111827" text-anchor="middle">3</text>
<text x="387" y="226" font-size="11" fill="#374151" text-anchor="start">acierto → bytes</text>
<line x1="341.0" y1="276.0" x2="770.0" y2="276.0" stroke="#1f2937" stroke-width="1.5"/>
<polygon points="779.0,276.0 770.0,279.6 770.0,272.4" fill="#1f2937"/>
<polygon points="369,249 382,262 369,275 356,262" fill="#fff7ed" stroke="#d97706" stroke-width="1.5"/>
<text x="369" y="266.5" font-size="13" font-weight="600" fill="#111827" text-anchor="middle">4</text>
<text x="387" y="266" font-size="11" fill="#374151" text-anchor="start">falta → descarga del bucket</text>
<line x1="779.0" y1="316.0" x2="350.0" y2="316.0" stroke="#1f2937" stroke-width="1.5" stroke-dasharray="5 4"/>
<polygon points="341.0,316.0 350.0,312.4 350.0,319.6" fill="#1f2937"/>
<polygon points="369,289 382,302 369,315 356,302" fill="#fff7ed" stroke="#d97706" stroke-width="1.5"/>
<text x="369" y="306.5" font-size="13" font-weight="600" fill="#111827" text-anchor="middle">5</text>
<text x="387" y="306" font-size="11" fill="#374151" text-anchor="start">bytes de la tesela</text>
<line x1="341.0" y1="356.0" x2="550.0" y2="356.0" stroke="#1f2937" stroke-width="1.5" stroke-dasharray="5 4"/>
<polygon points="559.0,356.0 550.0,359.6 550.0,352.4" fill="#1f2937"/>
<polygon points="369,329 382,342 369,355 356,342" fill="#fff7ed" stroke="#d97706" stroke-width="1.5"/>
<text x="369" y="346.5" font-size="13" font-weight="600" fill="#111827" text-anchor="middle">6</text>
<text x="387" y="346" font-size="11" fill="#374151" text-anchor="start">recalienta la caché en segundo plano</text>
<line x1="329.0" y1="396.0" x2="120.0" y2="396.0" stroke="#1f2937" stroke-width="1.5" stroke-dasharray="5 4"/>
<polygon points="111.0,396.0 120.0,392.4 120.0,399.6" fill="#1f2937"/>
<polygon points="139,369 152,382 139,395 126,382" fill="#fff7ed" stroke="#d97706" stroke-width="1.5"/>
<text x="139" y="386.5" font-size="13" font-weight="600" fill="#111827" text-anchor="middle">7</text>
<text x="157" y="386" font-size="11" fill="#374151" text-anchor="start">200 image/webp · 404 · o tesela transparente</text>
<line x1="24.0" y1="450" x2="40.0" y2="450" stroke="#1f2937" stroke-width="1.5"/>
<polygon points="46.0,450 39.0,446.8 39.0,453.2" fill="#1f2937"/>
<text x="54.0" y="454" font-size="11" fill="#374151">llamada</text>
<line x1="121.9" y1="450" x2="137.9" y2="450" stroke="#1f2937" stroke-width="1.5" stroke-dasharray="4 3"/>
<polygon points="143.9,450 136.9,446.8 136.9,453.2" fill="#1f2937"/>
<text x="151.9" y="454" font-size="11" fill="#374151">respuesta o tarea en segundo plano</text>
<text x="24" y="480" font-size="11" fill="#6b7280">· el paso 4 sólo ocurre tras una falta en Redis · una falta total responde 404 (satélite, ECMWF) o 200 transparente (radar, WRF, GFS, mapas base)</text>
</svg>
