<svg viewBox="0 0 880 560" xmlns="http://www.w3.org/2000/svg" font-family="system-ui, 'Segoe UI', Helvetica, Arial, sans-serif">
<rect width="880" height="560" fill="#ffffff"/>
<text x="24" y="34" font-size="16" font-weight="600" fill="#111827">Cuatro máquinas: hasta dónde llega la separación</text>
<text x="24" y="52" font-size="11" fill="#6b7280">Cada caja punteada es un host; cada flecha, un puerto que cruza el cable</text>
<rect x="24" y="64" width="400" height="180" rx="14" fill="none" stroke="#6b7280" stroke-width="1.5" stroke-dasharray="8 6"/>
<text x="40" y="86" font-size="10" font-weight="600" letter-spacing="0.08em" fill="#6b7280">A · PROCESAMIENTO</text>
<rect x="456" y="64" width="400" height="180" rx="14" fill="none" stroke="#6b7280" stroke-width="1.5" stroke-dasharray="8 6"/>
<text x="840" y="86" font-size="10" font-weight="600" letter-spacing="0.08em" fill="#6b7280" text-anchor="end">B · ALMACÉN DE OBJETOS</text>
<rect x="24" y="280" width="400" height="180" rx="14" fill="none" stroke="#6b7280" stroke-width="1.5" stroke-dasharray="8 6"/>
<text x="40" y="302" font-size="10" font-weight="600" letter-spacing="0.08em" fill="#6b7280">C · LECTURA</text>
<rect x="456" y="280" width="400" height="180" rx="14" fill="none" stroke="#6b7280" stroke-width="1.5" stroke-dasharray="8 6"/>
<text x="840" y="302" font-size="10" font-weight="600" letter-spacing="0.08em" fill="#6b7280" text-anchor="end">D · AVISOS Y WEB</text>
<rect x="40" y="128" width="176" height="52" rx="8" fill="#ffffff" stroke="#1f2937" stroke-width="1.5"/>
<text x="128.0" y="150.5" font-size="13" font-weight="600" fill="#111827" text-anchor="middle">producer + workers</text>
<text x="128.0" y="166.5" font-size="11" fill="#6b7280" text-anchor="middle">rabbitmq · metrics-api · sim</text>
<circle cx="44" cy="132" r="13" fill="#ffffff" stroke="#d1d5db"/>
<g transform="translate(36 124) scale(0.1250)"><path fill="#3776AB"  d="M49.33 62h29.159C86.606 62 93 55.132 93 46.981V19.183c0-7.912-6.632-13.856-14.555-15.176-5.014-.835-10.195-1.215-15.187-1.191-4.99.023-9.612.448-13.805 1.191C37.098 6.188 35 10.758 35 19.183V30h29v4H23.776c-8.484 0-15.914 5.108-18.237 14.811-2.681 11.12-2.8 17.919 0 29.53C7.614 86.983 12.569 93 21.054 93H31V79.952C31 70.315 39.428 62 49.33 62zm-1.838-39.11c-3.026 0-5.478-2.479-5.478-5.545 0-3.079 2.451-5.581 5.478-5.581 3.015 0 5.479 2.502 5.479 5.581-.001 3.066-2.465 5.545-5.479 5.545zm74.789 25.921C120.183 40.363 116.178 34 107.682 34H97v12.981C97 57.031 88.206 65 78.489 65H49.33C41.342 65 35 72.326 35 80.326v27.8c0 7.91 6.745 12.564 14.462 14.834 9.242 2.717 17.994 3.208 29.051 0C85.862 120.831 93 116.549 93 108.126V97H64v-4h43.682c8.484 0 11.647-5.776 14.599-14.66 3.047-9.145 2.916-17.799 0-29.529zm-41.955 55.606c3.027 0 5.479 2.479 5.479 5.547 0 3.076-2.451 5.579-5.479 5.579-3.015 0-5.478-2.502-5.478-5.579 0-3.068 2.463-5.547 5.478-5.547z"/></g>
<rect x="568" y="128" width="176" height="52" rx="8" fill="#eef2ff" stroke="#4338ca" stroke-width="2"/>
<text x="656.0" y="150.5" font-size="13" font-weight="600" fill="#3730a3" text-anchor="middle">seaweedfs</text>
<text x="656.0" y="166.5" font-size="11" fill="#6b7280" text-anchor="middle">S3 :9000 · filer 8888 cerrado</text>
<circle cx="572" cy="132" r="13" fill="#ffffff" stroke="#d1d5db"/>
<g transform="translate(564 124) scale(0.6667)" fill="none" stroke="#374151" stroke-width="1.8" stroke-linecap="round"><ellipse cx="12" cy="5" rx="8" ry="3"/><path d="M4 5v14c0 1.66 3.58 3 8 3s8-1.34 8-3V5"/><path d="M4 12c0 1.66 3.58 3 8 3s8-1.34 8-3"/></g>
<rect x="40" y="344" width="176" height="52" rx="8" fill="#ffffff" stroke="#1f2937" stroke-width="1.5"/>
<text x="128.0" y="366.5" font-size="13" font-weight="600" fill="#111827" text-anchor="middle">data-service-api</text>
<text x="128.0" y="382.5" font-size="11" fill="#6b7280" text-anchor="middle">APP_ROLE=web</text>
<circle cx="44" cy="348" r="13" fill="#ffffff" stroke="#d1d5db"/>
<g transform="translate(36 340) scale(0.1250)"><path fill="#3776AB"  d="M49.33 62h29.159C86.606 62 93 55.132 93 46.981V19.183c0-7.912-6.632-13.856-14.555-15.176-5.014-.835-10.195-1.215-15.187-1.191-4.99.023-9.612.448-13.805 1.191C37.098 6.188 35 10.758 35 19.183V30h29v4H23.776c-8.484 0-15.914 5.108-18.237 14.811-2.681 11.12-2.8 17.919 0 29.53C7.614 86.983 12.569 93 21.054 93H31V79.952C31 70.315 39.428 62 49.33 62zm-1.838-39.11c-3.026 0-5.478-2.479-5.478-5.545 0-3.079 2.451-5.581 5.478-5.581 3.015 0 5.479 2.502 5.479 5.581-.001 3.066-2.465 5.545-5.479 5.545zm74.789 25.921C120.183 40.363 116.178 34 107.682 34H97v12.981C97 57.031 88.206 65 78.489 65H49.33C41.342 65 35 72.326 35 80.326v27.8c0 7.91 6.745 12.564 14.462 14.834 9.242 2.717 17.994 3.208 29.051 0C85.862 120.831 93 116.549 93 108.126V97H64v-4h43.682c8.484 0 11.647-5.776 14.599-14.66 3.047-9.145 2.916-17.799 0-29.529zm-41.955 55.606c3.027 0 5.479 2.479 5.479 5.547 0 3.076-2.451 5.579-5.479 5.579-3.015 0-5.478-2.502-5.478-5.579 0-3.068 2.463-5.547 5.478-5.547z"/></g>
<rect x="232" y="344" width="176" height="52" rx="8" fill="#ffffff" stroke="#1f2937" stroke-width="1.5"/>
<text x="320.0" y="366.5" font-size="13" font-weight="600" fill="#111827" text-anchor="middle">sync + redis</text>
<text x="320.0" y="382.5" font-size="11" fill="#6b7280" text-anchor="middle">APP_ROLE=worker</text>
<circle cx="236" cy="348" r="13" fill="#ffffff" stroke="#d1d5db"/>
<g transform="translate(228 340) scale(0.1250)"><path fill="#3776AB"  d="M49.33 62h29.159C86.606 62 93 55.132 93 46.981V19.183c0-7.912-6.632-13.856-14.555-15.176-5.014-.835-10.195-1.215-15.187-1.191-4.99.023-9.612.448-13.805 1.191C37.098 6.188 35 10.758 35 19.183V30h29v4H23.776c-8.484 0-15.914 5.108-18.237 14.811-2.681 11.12-2.8 17.919 0 29.53C7.614 86.983 12.569 93 21.054 93H31V79.952C31 70.315 39.428 62 49.33 62zm-1.838-39.11c-3.026 0-5.478-2.479-5.478-5.545 0-3.079 2.451-5.581 5.478-5.581 3.015 0 5.479 2.502 5.479 5.581-.001 3.066-2.465 5.545-5.479 5.545zm74.789 25.921C120.183 40.363 116.178 34 107.682 34H97v12.981C97 57.031 88.206 65 78.489 65H49.33C41.342 65 35 72.326 35 80.326v27.8c0 7.91 6.745 12.564 14.462 14.834 9.242 2.717 17.994 3.208 29.051 0C85.862 120.831 93 116.549 93 108.126V97H64v-4h43.682c8.484 0 11.647-5.776 14.599-14.66 3.047-9.145 2.916-17.799 0-29.529zm-41.955 55.606c3.027 0 5.479 2.479 5.479 5.547 0 3.076-2.451 5.579-5.479 5.579-3.015 0-5.478-2.502-5.478-5.579 0-3.068 2.463-5.547 5.478-5.547z"/></g>
<rect x="472" y="344" width="176" height="52" rx="8" fill="#ffffff" stroke="#1f2937" stroke-width="1.5"/>
<text x="560.0" y="374.5" font-size="13" font-weight="600" fill="#111827" text-anchor="middle">alerts-service + mysql</text>
<circle cx="476" cy="348" r="13" fill="#ffffff" stroke="#d1d5db"/>
<g transform="translate(468 340) scale(0.1250)"><path fill="#3776AB"  d="M49.33 62h29.159C86.606 62 93 55.132 93 46.981V19.183c0-7.912-6.632-13.856-14.555-15.176-5.014-.835-10.195-1.215-15.187-1.191-4.99.023-9.612.448-13.805 1.191C37.098 6.188 35 10.758 35 19.183V30h29v4H23.776c-8.484 0-15.914 5.108-18.237 14.811-2.681 11.12-2.8 17.919 0 29.53C7.614 86.983 12.569 93 21.054 93H31V79.952C31 70.315 39.428 62 49.33 62zm-1.838-39.11c-3.026 0-5.478-2.479-5.478-5.545 0-3.079 2.451-5.581 5.478-5.581 3.015 0 5.479 2.502 5.479 5.581-.001 3.066-2.465 5.545-5.479 5.545zm74.789 25.921C120.183 40.363 116.178 34 107.682 34H97v12.981C97 57.031 88.206 65 78.489 65H49.33C41.342 65 35 72.326 35 80.326v27.8c0 7.91 6.745 12.564 14.462 14.834 9.242 2.717 17.994 3.208 29.051 0C85.862 120.831 93 116.549 93 108.126V97H64v-4h43.682c8.484 0 11.647-5.776 14.599-14.66 3.047-9.145 2.916-17.799 0-29.529zm-41.955 55.606c3.027 0 5.479 2.479 5.479 5.547 0 3.076-2.451 5.579-5.479 5.579-3.015 0-5.478-2.502-5.478-5.579 0-3.068 2.463-5.547 5.478-5.547z"/></g>
<rect x="664" y="344" width="176" height="52" rx="8" fill="#ffffff" stroke="#1f2937" stroke-width="1.5"/>
<text x="752.0" y="374.5" font-size="13" font-weight="600" fill="#111827" text-anchor="middle">visualizer</text>
<circle cx="668" cy="348" r="13" fill="#ffffff" stroke="#d1d5db"/>
<g transform="translate(660 340) scale(0.6667)" fill="none" stroke="#374151" stroke-width="1.8" stroke-linejoin="round"><rect x="2.5" y="4" width="19" height="16" rx="2"/><path d="M2.5 8.5h19M5.5 6.3h.01M8 6.3h.01M10.5 6.3h.01"/></g>
<line x1="222.0" y1="154.0" x2="553.0" y2="154.0" stroke="#1f2937" stroke-width="1.5"/>
<polygon points="562.0,154.0 553.0,157.6 553.0,150.4" fill="#1f2937"/>
<text x="392.0" y="144.0" font-size="11" fill="#374151" text-anchor="middle">S3 · sube productos</text>
<line x1="369.8" y1="338.0" x2="598.7" y2="190.9" stroke="#1f2937" stroke-width="1.5"/>
<polygon points="606.2,186.0 600.6,193.9 596.7,187.8" fill="#1f2937"/>
<text x="420.0" y="262.0" font-size="11" fill="#374151" text-anchor="end">S3 · lee lo nuevo</text>
<line x1="222.0" y1="370.0" x2="217.0" y2="370.0" stroke="#1f2937" stroke-width="1.5"/>
<polygon points="226.0,370.0 217.0,373.6 217.0,366.4" fill="#1f2937"/>
<text x="224.0" y="336.0" font-size="11" fill="#374151" text-anchor="middle">redis :6379 · sin contraseña</text>
<line x1="574.2" y1="338.0" x2="638.1" y2="194.2" stroke="#1f2937" stroke-width="1.5" stroke-dasharray="5 4"/>
<polygon points="641.8,186.0 641.4,195.7 634.8,192.8" fill="#1f2937"/>
<text x="612.0" y="262.0" font-size="11" fill="#374151" text-anchor="start">S3, opcional</text>
<text x="24" y="540" font-size="11" fill="#6b7280">· A exige editar la plantilla: seaweedfs:8333 está escrito a mano en el compose · nada de esto se probó; ver el texto del capítulo</text>
</svg>
