<svg viewBox="0 0 880 660" xmlns="http://www.w3.org/2000/svg" font-family="system-ui, 'Segoe UI', Helvetica, Arial, sans-serif">
<rect width="880" height="660" fill="#ffffff"/>
<text x="24" y="34" font-size="16" font-weight="600" fill="#111827">visualizer — se hornea al compilar, corre en el navegador</text>
<text x="24" y="52" font-size="11" fill="#6b7280">nginx sólo sirve archivos; el navegador llama a tres backends por su cuenta</text>
<rect x="24" y="72" width="832" height="110" rx="10" fill="#f9fafb" stroke="#e5e7eb"/>
<text x="40" y="94" font-size="10" font-weight="600" letter-spacing="0.08em" fill="#6b7280">DOCKER BUILD · UNA VEZ POR DESPLIEGUE</text>
<rect x="24" y="206" width="832" height="110" rx="10" fill="#f9fafb" stroke="#e5e7eb"/>
<text x="40" y="228" font-size="10" font-weight="600" letter-spacing="0.08em" fill="#6b7280">EN EL HOST</text>
<rect x="24" y="340" width="832" height="110" rx="10" fill="#f9fafb" stroke="#e5e7eb"/>
<text x="40" y="362" font-size="10" font-weight="600" letter-spacing="0.08em" fill="#6b7280">NAVEGADOR DEL PRONOSTICADOR</text>
<rect x="24" y="474" width="832" height="110" rx="10" fill="#f9fafb" stroke="#e5e7eb"/>
<text x="40" y="496" font-size="10" font-weight="600" letter-spacing="0.08em" fill="#6b7280">BACKENDS · TRES PUERTOS PUBLICADOS</text>
<rect x="40" y="108" width="220" height="52" rx="8" fill="#ffffff" stroke="#1f2937" stroke-width="1.5"/>
<text x="150.0" y="130.5" font-size="13" font-weight="600" fill="#111827" text-anchor="middle">8 build args</text>
<text x="150.0" y="146.5" font-size="11" fill="#6b7280" text-anchor="middle">DATA_SERVICE_BASE_URL y otras</text>
<rect x="316" y="108" width="200" height="52" rx="8" fill="#ffffff" stroke="#1f2937" stroke-width="1.5"/>
<text x="416.0" y="130.5" font-size="13" font-weight="600" fill="#111827" text-anchor="middle">etapa docs</text>
<text x="416.0" y="146.5" font-size="11" fill="#6b7280" text-anchor="middle">mkdocs build --strict</text>
<rect x="592" y="108" width="240" height="52" rx="8" fill="#eef2ff" stroke="#4338ca" stroke-width="2"/>
<text x="712.0" y="130.5" font-size="13" font-weight="600" fill="#3730a3" text-anchor="middle">bundle + /docs-site</text>
<text x="712.0" y="146.5" font-size="11" fill="#6b7280" text-anchor="middle">URLs fijadas por webpack</text>
<circle cx="596" cy="112" r="13" fill="#ffffff" stroke="#d1d5db"/>
<g transform="translate(588.0 104.0) scale(0.6667)"><path fill="#3178C6" d="M1.125 0C.502 0 0 .502 0 1.125v21.75C0 23.498.502 24 1.125 24h21.75c.623 0 1.125-.502 1.125-1.125V1.125C24 .502 23.498 0 22.875 0zm17.363 9.75c.612 0 1.154.037 1.627.111a6.38 6.38 0 0 1 1.306.34v2.458a3.95 3.95 0 0 0-.643-.361 5.093 5.093 0 0 0-.717-.26 5.453 5.453 0 0 0-1.426-.2c-.3 0-.573.028-.819.086a2.1 2.1 0 0 0-.623.242c-.17.104-.3.229-.393.374a.888.888 0 0 0-.14.49c0 .196.053.373.156.529.104.156.252.304.443.444s.423.276.696.41c.273.135.582.274.926.416.47.197.892.407 1.266.628.374.222.695.473.963.753.268.279.472.598.614.957.142.359.214.776.214 1.253 0 .657-.125 1.21-.373 1.656a3.033 3.033 0 0 1-1.012 1.085 4.38 4.38 0 0 1-1.487.596c-.566.12-1.163.18-1.79.18a9.916 9.916 0 0 1-1.84-.164 5.544 5.544 0 0 1-1.512-.493v-2.63a5.033 5.033 0 0 0 3.237 1.2c.333 0 .624-.03.872-.09.249-.06.456-.144.623-.25.166-.108.29-.234.373-.38a1.023 1.023 0 0 0-.074-1.089 2.12 2.12 0 0 0-.537-.5 5.597 5.597 0 0 0-.807-.444 27.72 27.72 0 0 0-1.007-.436c-.918-.383-1.602-.852-2.053-1.405-.45-.553-.676-1.222-.676-2.005 0-.614.123-1.141.369-1.582.246-.441.58-.804 1.004-1.089a4.494 4.494 0 0 1 1.47-.629 7.536 7.536 0 0 1 1.77-.201zm-15.113.188h9.563v2.166H9.506v9.646H6.789v-9.646H3.375z"/></g>
<rect x="592" y="242" width="240" height="52" rx="8" fill="#ffffff" stroke="#1f2937" stroke-width="1.5"/>
<text x="712.0" y="264.5" font-size="13" font-weight="600" fill="#111827" text-anchor="middle">nginx</text>
<text x="712.0" y="280.5" font-size="11" fill="#6b7280" text-anchor="middle">estáticos · sin proxy_pass</text>
<rect x="316" y="376" width="200" height="52" rx="8" fill="#ffffff" stroke="#1f2937" stroke-width="1.5"/>
<text x="416.0" y="398.5" font-size="13" font-weight="600" fill="#111827" text-anchor="middle">la aplicación</text>
<text x="416.0" y="414.5" font-size="11" fill="#6b7280" text-anchor="middle">Angular en el navegador</text>
<circle cx="320" cy="380" r="13" fill="#ffffff" stroke="#d1d5db"/>
<g transform="translate(312.0 372.0) scale(0.6667)" fill="none" stroke="#374151" stroke-width="1.8" stroke-linejoin="round"><rect x="2.5" y="4" width="19" height="16" rx="2"/><path d="M2.5 8.5h19M5.5 6.3h.01M8 6.3h.01M10.5 6.3h.01"/></g>
<rect x="40" y="510" width="220" height="52" rx="8" fill="#ffffff" stroke="#1f2937" stroke-width="1.5"/>
<text x="150.0" y="532.5" font-size="13" font-weight="600" fill="#111827" text-anchor="middle">data-service</text>
<text x="150.0" y="548.5" font-size="11" fill="#6b7280" text-anchor="middle">:6006</text>
<circle cx="44" cy="514" r="13" fill="#ffffff" stroke="#d1d5db"/>
<g transform="translate(36.0 506.0) scale(0.1250)"><path fill="#3776AB"  d="M49.33 62h29.159C86.606 62 93 55.132 93 46.981V19.183c0-7.912-6.632-13.856-14.555-15.176-5.014-.835-10.195-1.215-15.187-1.191-4.99.023-9.612.448-13.805 1.191C37.098 6.188 35 10.758 35 19.183V30h29v4H23.776c-8.484 0-15.914 5.108-18.237 14.811-2.681 11.12-2.8 17.919 0 29.53C7.614 86.983 12.569 93 21.054 93H31V79.952C31 70.315 39.428 62 49.33 62zm-1.838-39.11c-3.026 0-5.478-2.479-5.478-5.545 0-3.079 2.451-5.581 5.478-5.581 3.015 0 5.479 2.502 5.479 5.581-.001 3.066-2.465 5.545-5.479 5.545zm74.789 25.921C120.183 40.363 116.178 34 107.682 34H97v12.981C97 57.031 88.206 65 78.489 65H49.33C41.342 65 35 72.326 35 80.326v27.8c0 7.91 6.745 12.564 14.462 14.834 9.242 2.717 17.994 3.208 29.051 0C85.862 120.831 93 116.549 93 108.126V97H64v-4h43.682c8.484 0 11.647-5.776 14.599-14.66 3.047-9.145 2.916-17.799 0-29.529zm-41.955 55.606c3.027 0 5.479 2.479 5.479 5.547 0 3.076-2.451 5.579-5.479 5.579-3.015 0-5.478-2.502-5.478-5.579 0-3.068 2.463-5.547 5.478-5.547z"/></g>
<rect x="316" y="510" width="200" height="52" rx="8" fill="#ffffff" stroke="#1f2937" stroke-width="1.5"/>
<text x="416.0" y="532.5" font-size="13" font-weight="600" fill="#111827" text-anchor="middle">alerts-service</text>
<text x="416.0" y="548.5" font-size="11" fill="#6b7280" text-anchor="middle">:6007</text>
<circle cx="320" cy="514" r="13" fill="#ffffff" stroke="#d1d5db"/>
<g transform="translate(312.0 506.0) scale(0.1250)"><path fill="#3776AB"  d="M49.33 62h29.159C86.606 62 93 55.132 93 46.981V19.183c0-7.912-6.632-13.856-14.555-15.176-5.014-.835-10.195-1.215-15.187-1.191-4.99.023-9.612.448-13.805 1.191C37.098 6.188 35 10.758 35 19.183V30h29v4H23.776c-8.484 0-15.914 5.108-18.237 14.811-2.681 11.12-2.8 17.919 0 29.53C7.614 86.983 12.569 93 21.054 93H31V79.952C31 70.315 39.428 62 49.33 62zm-1.838-39.11c-3.026 0-5.478-2.479-5.478-5.545 0-3.079 2.451-5.581 5.478-5.581 3.015 0 5.479 2.502 5.479 5.581-.001 3.066-2.465 5.545-5.479 5.545zm74.789 25.921C120.183 40.363 116.178 34 107.682 34H97v12.981C97 57.031 88.206 65 78.489 65H49.33C41.342 65 35 72.326 35 80.326v27.8c0 7.91 6.745 12.564 14.462 14.834 9.242 2.717 17.994 3.208 29.051 0C85.862 120.831 93 116.549 93 108.126V97H64v-4h43.682c8.484 0 11.647-5.776 14.599-14.66 3.047-9.145 2.916-17.799 0-29.529zm-41.955 55.606c3.027 0 5.479 2.479 5.479 5.547 0 3.076-2.451 5.579-5.479 5.579-3.015 0-5.478-2.502-5.478-5.579 0-3.068 2.463-5.547 5.478-5.547z"/></g>
<rect x="592" y="510" width="240" height="52" rx="8" fill="#ffffff" stroke="#1f2937" stroke-width="1.5"/>
<text x="712.0" y="532.5" font-size="13" font-weight="600" fill="#111827" text-anchor="middle">metrics-api</text>
<text x="712.0" y="548.5" font-size="11" fill="#6b7280" text-anchor="middle">:6020</text>
<circle cx="596" cy="514" r="13" fill="#ffffff" stroke="#d1d5db"/>
<g transform="translate(588.0 506.0) scale(0.1250)"><path fill="#3776AB"  d="M49.33 62h29.159C86.606 62 93 55.132 93 46.981V19.183c0-7.912-6.632-13.856-14.555-15.176-5.014-.835-10.195-1.215-15.187-1.191-4.99.023-9.612.448-13.805 1.191C37.098 6.188 35 10.758 35 19.183V30h29v4H23.776c-8.484 0-15.914 5.108-18.237 14.811-2.681 11.12-2.8 17.919 0 29.53C7.614 86.983 12.569 93 21.054 93H31V79.952C31 70.315 39.428 62 49.33 62zm-1.838-39.11c-3.026 0-5.478-2.479-5.478-5.545 0-3.079 2.451-5.581 5.478-5.581 3.015 0 5.479 2.502 5.479 5.581-.001 3.066-2.465 5.545-5.479 5.545zm74.789 25.921C120.183 40.363 116.178 34 107.682 34H97v12.981C97 57.031 88.206 65 78.489 65H49.33C41.342 65 35 72.326 35 80.326v27.8c0 7.91 6.745 12.564 14.462 14.834 9.242 2.717 17.994 3.208 29.051 0C85.862 120.831 93 116.549 93 108.126V97H64v-4h43.682c8.484 0 11.647-5.776 14.599-14.66 3.047-9.145 2.916-17.799 0-29.529zm-41.955 55.606c3.027 0 5.479 2.479 5.479 5.547 0 3.076-2.451 5.579-5.479 5.579-3.015 0-5.478-2.502-5.478-5.579 0-3.068 2.463-5.547 5.478-5.547z"/></g>
<line x1="266.0" y1="134.0" x2="577.0" y2="134.0" stroke="#1f2937" stroke-width="1.5"/>
<polygon points="586.0,134.0 577.0,137.6 577.0,130.4" fill="#1f2937"/>
<text x="400.0" y="100.0" font-size="11" fill="#374151" text-anchor="middle">DefinePlugin</text>
<line x1="522.0" y1="134.0" x2="577.0" y2="134.0" stroke="#1f2937" stroke-width="1.5"/>
<polygon points="586.0,134.0 577.0,137.6 577.0,130.4" fill="#1f2937"/>
<text x="554.0" y="100.0" font-size="11" fill="#374151" text-anchor="middle">public/docs-site</text>
<line x1="712.0" y1="166.0" x2="712.0" y2="227.0" stroke="#1f2937" stroke-width="1.5"/>
<polygon points="712.0,236.0 708.4,227.0 715.6,227.0" fill="#1f2937"/>
<text x="724.0" y="222.0" font-size="11" fill="#374151" text-anchor="start">COPY a la imagen</text>
<line x1="641.3" y1="300.0" x2="494.9" y2="366.3" stroke="#1f2937" stroke-width="1.5"/>
<polygon points="486.7,370.0 493.4,363.0 496.4,369.6" fill="#1f2937"/>
<text x="540.0" y="350.0" font-size="11" fill="#374151" text-anchor="start">GET / · GET /docs-site/</text>
<line x1="352.5" y1="434.0" x2="221.6" y2="500.0" stroke="#1f2937" stroke-width="1.5"/>
<polygon points="213.5,504.0 219.9,496.7 223.2,503.2" fill="#1f2937"/>
<text x="232.0" y="470.0" font-size="11" fill="#374151" text-anchor="end">HTTP /products</text>
<line x1="416.0" y1="434.0" x2="416.0" y2="495.0" stroke="#1f2937" stroke-width="1.5"/>
<polygon points="416.0,504.0 412.4,495.0 419.6,495.0" fill="#1f2937"/>
<text x="424.0" y="470.0" font-size="11" fill="#374151" text-anchor="start">HTTP /alerts</text>
<line x1="486.7" y1="434.0" x2="633.1" y2="500.3" stroke="#1f2937" stroke-width="1.5"/>
<polygon points="641.3,504.0 631.6,503.6 634.6,497.0" fill="#1f2937"/>
<text x="604.0" y="470.0" font-size="11" fill="#374151" text-anchor="start">HTTP /api</text>
<rect x="24.0" y="603" width="22" height="14" rx="3" fill="#eef2ff" stroke="#4338ca" stroke-width="1.2"/>
<text x="54.0" y="614" font-size="11" fill="#374151">lo que cambia sólo con una reconstrucción</text>
<text x="24" y="640" font-size="11" fill="#6b7280">· cambiar una URL de backend exige reconstruir la imagen · publicar sólo el puerto del visualizador deja el mapa vacío</text>
</svg>
