<svg xmlns="http://www.w3.org/2000/svg" viewBox="0 0 64 64" width="64" height="64">
  <circle cx="32" cy="32" r="28" fill="#1976d2" stroke="#1565c0" stroke-width="2"/>
  <ellipse cx="32" cy="32" rx="24" ry="12" fill="none" stroke="#fff" stroke-width="1.5" opacity="0.6"/>
  <ellipse cx="32" cy="32" rx="24" ry="20" fill="none" stroke="#fff" stroke-width="1.5" opacity="0.6"/>
  <line x1="32" y1="6" x2="32" y2="58" stroke="#fff" stroke-width="1.5" opacity="0.6"/>
  <line x1="6" y1="32" x2="58" y2="32" stroke="#fff" stroke-width="1.5" opacity="0.6"/>
  <circle cx="20" cy="24" r="4" fill="#4fc3f7" opacity="0.8"/>
  <circle cx="38" cy="20" r="6" fill="#4fc3f7" opacity="0.7"/>
  <circle cx="44" cy="38" r="5" fill="#4fc3f7" opacity="0.75"/>
  <circle cx="24" cy="40" r="3" fill="#4fc3f7" opacity="0.8"/>
  <path d="M18 28 Q22 24 26 28 Q30 32 34 28" fill="none" stroke="#fff" stroke-width="2" stroke-linecap="round"/>
  <circle cx="46" cy="18" r="2" fill="#ffeb3b"/>
  <path d="M46 14 L46 12 M46 22 L46 24 M42 18 L40 18 M50 18 L52 18" stroke="#ffeb3b" stroke-width="1.5" stroke-linecap="round"/>
</svg>
